<?xml version="1.0"?>
<svg xmlns="http://www.w3.org/2000/svg" height="512px" viewBox="0 0 64 64" width="512px" class=""><g><path d="m11 3h42v48h-42z" fill="#ffdaaa" data-original="#FFDAAA" class="" data-old_color="#ffdaaa" style="fill:#171F38"/><path d="m26.06 46.68 5.43 2.54-5.49 11.78-1.45-3.99-3.99 1.45z" fill="#ffda44" data-original="#FFDA44" class="" style="fill:#F70C0C" data-old_color="#ffda44"/><path d="m39.45 57.01-1.45 3.99-5.49-11.78 5.43-2.54 5.5 11.78z" fill="#ffda44" data-original="#FFDA44" class="" style="fill:#F70C0C" data-old_color="#ffda44"/><circle cx="32" cy="40" fill="#00d7df" r="12" data-original="#00D7DF" class="" data-old_color="#00d7df" style="fill:#F9F9F9"/><path d="m38.65 37.24c.4.95 2.15 1.68 2.15 2.76s-1.75 1.81-2.15 2.76c-.4.97.31 2.73-.43 3.46s-2.49.03-3.46.43c-.95.4-1.68 2.15-2.76 2.15s-1.81-1.75-2.76-2.15c-.97-.4-2.73.31-3.46-.43s-.03-2.49-.43-3.46c-.4-.95-2.15-1.68-2.15-2.76s1.75-1.81 2.15-2.76c.4-.97-.31-2.73.43-3.46s2.49-.03 3.46-.43c.95-.4 1.68-2.15 2.76-2.15s1.81 1.75 2.76 2.15c.97.4 2.73-.31 3.46.43s.03 2.49.43 3.46z" fill="#ff5023" data-original="#FF5023" class="" style="fill:#F70C0C" data-old_color="#ff5023"/><path d="m30.25 51.87-4.25 9.13-1.45-3.99 2.77-5.95a11.676 11.676 0 0 0 2.93.81z" fill="#bfa433" data-original="#BFA433" class="" style="fill:#E97272" data-old_color="#bfa433"/><path d="m36.68 51.06 2.77 5.95-1.45 3.99-4.25-9.13a11.676 11.676 0 0 0 2.93-.81z" fill="#bfa433" data-original="#BFA433" class="" style="fill:#E97272" data-old_color="#bfa433"/><g fill="#1a6fb0"><path d="m27 7h10v2h-10z" data-original="#1A6FB0" class="active-path" data-old_color="#1A6FB0" style="fill:#FEFFFF"/><path d="m16 13h32v2h-32z" data-original="#1A6FB0" class="active-path" data-old_color="#1A6FB0" style="fill:#FEFFFF"/><path d="m16 19h32v2h-32z" data-original="#1A6FB0" class="active-path" data-old_color="#1A6FB0" style="fill:#FEFFFF"/></g></g> </svg>
